# AST/ASF file generated using VICON BodyLanguage
# -----------------------------------------------
:version 1.10
:name VICON
:units
  mass 1.0
  length 0.45
  angle deg
:documentation
   .ast/.asf automatically generated from VICON data using
   VICON BodyBuilder and BodyLanguage model FoxedUp or BRILLIANT.MOD
:root
   order TX TY TZ RX RY RZ
   axis XYZ
   position 0 0 0  
   orientation 0 0 0 
:bonedata
  begin
     id 1 
     name lhipjoint
     direction 0.528046 -0.759594 0.379717 
     length 2.39752 
     axis 0 0 0  XYZ
  end
  begin
     id 2 
     name lfemur
     direction 0.34202 -0.939693 0  
     length 7.31175  
     axis 0 0 20  XYZ
    dof rx ry rz
    limits (-160.0 20.0)
           (-70.0 70.0)
           (-60.0 70.0)
  end
  begin
     id 3 
     name ltibia
     direction 0.34202 -0.939693 0   
     length 7.52482   
     axis 0 0 20   XYZ
    dof rx
    limits (-10.0 170.0)
  end
  begin
     id 4 
     name lfoot
     direction 0.0675379 -0.185559 0.980309   
     length 2.00961   
     axis -90 7.62852e-016 20   XYZ
    dof rx rz
    limits (-45.0 90.0)
           (-70.0 20.0)
  end
  begin
     id 5 
     name ltoes
     direction 1.5352e-011 -4.22286e-011 1   
     length 1.01383   
     axis -90 7.62852e-016 20   XYZ
    dof rx
    limits (-90.0 20.0)
  end
  begin
     id 6 
     name rhipjoint
     direction -0.510274 -0.769251 0.384544   
     length 2.36742  
     axis 0 0 0  XYZ 
  end
  begin
     id 7 
     name rfemur
     direction -0.34202 -0.939693 0   
     length 7.45325   
     axis 0 0 -20   XYZ
    dof rx ry rz
    limits (-160.0 20.0)
           (-70.0 70.0)
           (-70.0 60.0)
  end
  begin
     id 8 
     name rtibia
     direction -0.34202 -0.939693 0   
     length 7.49587   
     axis 0 0 -20   XYZ
    dof rx
    limits (-10.0 170.0)
 end
 begin
     id 9 
     name rfoot
     direction -0.106475 -0.292536 0.950308   
     length 2.20898  
     axis -90 -7.62852e-016 -20   XYZ
    dof rx rz
    limits (-45.0 90.0)
           (-20.0 70.0)
  end
  begin
     id 10 
     name rtoes
     direction -1.53597e-011 -4.22023e-011 1   
     length 1.10065   
     axis -90 -7.62852e-016 -20   XYZ
    dof rx
    limits (-90.0 20.0)
  end
  begin
     id 11 
     name lowerback
     direction 0.0260024 0.998026 -0.0571652   
     length 2.11214   
     axis 0 0 0   XYZ
    dof rx ry rz
    limits (-20.0 45.0)
           (-30.0 30.0)
           (-30.0 30.0)
  end
  begin
     id 12 
     name upperback
     direction 0.0216202 0.999542 -0.0211766   
     length 2.11689   
     axis 0 0 0   XYZ
    dof rx ry rz
    limits (-20.0 45.0)
           (-30.0 30.0)
           (-30.0 30.0)
  end
  begin
     id 13 
     name thorax
     direction 0.00883312 0.999944 0.00589057   
     length 2.11821   
     axis 0 0 0   XYZ
    dof rx ry rz
    limits (-20.0 45.0)
           (-30.0 30.0)
           (-30.0 30.0)
  end
  begin
     id 14 
     name lowerneck
     direction -0.059386 0.994433 0.0870401   
     length 1.81176   
     axis 0 0 0   XYZ
    dof rx ry rz
    limits (-20.0 45.0)
           (-30.0 30.0)
           (-30.0 30.0)
  end
  begin
     id 15 
     name upperneck
     direction 0.0506457 0.97328 -0.223967   
     length 1.82382   
     axis 0 0 0   XYZ
    dof rx ry rz
    limits (-20.0 45.0)
           (-30.0 30.0)
           (-30.0 30.0)
  end
  begin
     id 16
     name head
     direction 0.0205902 0.996147 -0.0852487  
     length 1.84805  
     axis 0 0 0   XYZ
    dof rx ry rz
    limits (-20.0 45.0)
           (-30.0 30.0)
           (-30.0 30.0)
  end
  begin
     id 17 
     name lclavicle
     direction 0.949493 0.303881 -0.0782325  
     length 3.60584  
     axis 0 0 0   XYZ
    dof ry rz
    limits (-20.0 10.0)
           (0.0 20.0)
  end
  begin
     id 18 
     name lhumerus
     direction 1 -4.48965e-011 1.48782e-027   
     length 4.95681   
     axis 180 -30 -90   XYZ
    dof rx ry rz
    limits (-60.0 90.0)
           (-90.0 90.0)
           (-90.0 90.0)
  end
  begin
     id 19
     name lradius
     direction 1 -4.48952e-011 2.06528e-027   
     length 3.40915   
     axis 180 -30 -90   XYZ
    dof rx
    limits (-10.0 170.0)
  end
  begin
     id 20
     name lwrist
     direction 1 -4.48964e-011 1.28021e-027   
     length 1.70457   
     axis -1.61767e-015 90 90   XYZ
    dof ry
    limits (-180.0 0.0)
 end
  begin
     id 21 
     name lhand
     direction 1 -4.49094e-011 2.54887e-027   
     length 0.616403   
     axis -1.63363e-015 90 90   XYZ
    dof rx rz
    limits (-90.0 90.0)
           (-45.0 45.0)
  end
  begin
     id 22 
     name lfingers
     direction 1 -4.49002e-011 5.11407e-027   
     length 0.49696   
     axis -3.26723e-015 90 90   XYZ
    dof rx
    limits (0.0 90.0)
  end
  begin
     id 23
     name lthumb
     direction 0.707107 -6.34998e-011 0.707107   
     length 0.713539   
     axis -90 45 -2.25915e-014   XYZ
    dof rx rz
    limits (-45.0 45.0)
           (-45.0 45.0)
  end
  begin
     id 24 
     name rclavicle
     direction -0.937751 0.334612 -0.0930482   
     length 3.46287  
     axis 0 0 0   XYZ 
    dof ry rz
    limits (-10.0 20.0)
           (-20.0 0.0)
  end
  begin
     id 25 
     name rhumerus
     direction -1 -4.48962e-011 3.59972e-027  
     length 5.352   
     axis 180 30 90   XYZ
    dof rx ry rz
    limits (-90.0 60.0)
           (-90.0 90.0)
           (-90.0 90.0)
  end
  begin
     id 26 
     name rradius
     direction -1 -4.48987e-011 -3.76925e-027   
     length 3.43721   
     axis 180 30 90   XYZ
    dof rx
    limits (-10.0 170.0)
  end
  begin
     id 27 
     name rwrist
     direction -1 -4.48943e-011 1.28112e-027   
     length 1.7186   
     axis -1.61767e-015 -90 -90   XYZ
    dof ry
    limits (-180.0 0.0)
  end
  begin
     id 28
     name rhand
     direction -1 -4.49027e-011 2.55483e-027   
     length 0.72009   
     axis -1.63363e-015 -90 -90   XYZ
    dof rx rz
    limits (-90.0 90.0)
           (-45.0 45.0)
  end
  begin
     id 29
     name rfingers
     direction -1 -4.48827e-011 5.14506e-027   
     length 0.580555   
     axis -3.26723e-015 -90 -90   XYZ
    dof rx
    limits (0.0 90.0)
  end
  begin
     id 30
     name rthumb
     direction -0.707107 -6.34936e-011 0.707107   
     length 0.833564   
     axis -90 -45 2.25915e-014   XYZ
    dof rx rz
    limits (-45.0 45.0)
           (-45.0 45.0)
  end
:hierarchy
  begin
    root lhipjoint rhipjoint lowerback
    lhipjoint lfemur
    lfemur ltibia
    ltibia lfoot
    lfoot ltoes
    rhipjoint rfemur
    rfemur rtibia
    rtibia rfoot
    rfoot rtoes
    lowerback upperback
    upperback thorax
    thorax lowerneck lclavicle rclavicle
    lowerneck upperneck
    upperneck head
    lclavicle lhumerus
    lhumerus lradius
    lradius lwrist
    lwrist lhand lthumb
    lhand lfingers
    rclavicle rhumerus
    rhumerus rradius
    rradius rwrist
    rwrist rhand rthumb
    rhand rfingers
  end

#!OML:ASF H:\Terrain\Patient Classification 1\Terrain2\Thursday\justin.ASF
:FULLY-SPECIFIED
:DEGREES
450
root 15.567 22.1412 0.558331 -177.188 59.5597 -168.548
lowerback 11.4418 2.41176 0.106136
upperback 6.36077 3.66515 2.41488
thorax 0.0800141 1.98425 2.03232
lowerneck -6.05394 -7.47364 -12.807
upperneck 40.3883 -8.20631 8.6187
head 16.6118 -3.25967 5.18544
rclavicle 5.26531e-014 -5.76476e-015
rhumerus -36.105 -5.87722 -75.3375
rradius 40.105
rwrist -14.034
rhand -20.0424 15.6236
rfingers 7.12502
rthumb 6.29893 -14.2627
lclavicle 5.26531e-014 -5.76476e-015
lhumerus -39.7242 5.72019 72.5365
lradius 51.8949
lwrist 8.47981
lhand -18.6284 18.7489
lfingers 7.12502
lthumb 7.66385 48.5901
rfemur -6.07517 -9.42751 19.8952
rtibia 10.9517
rfoot 26.6854 -16.1148
rtoes 29.4549
lfemur -24.487 11.0776 6.78269
ltibia 101.587
lfoot -13.5019 -45.3032
ltoes 23.3947
451
root 15.6849 21.9211 0.580592 -178.29 59.4674 -169.416
lowerback 11.4991 2.59799 0.0966493
upperback 6.36067 3.9032 2.04883
thorax 0.065015 2.10701 1.62869
lowerneck -5.98557 -7.72602 -12.68
upperneck 40.4166 -8.76585 9.04837
head 16.7263 -3.41343 5.27958
rclavicle -2.50966e-014 9.74045e-015
rhumerus -36.6264 -5.91197 -75.746
rradius 41.0286
rwrist -14.8536
rhand -20.4897 14.8305
rfingers 7.12502
rthumb 5.86707 -15.0683
lclavicle -2.50966e-014 9.74045e-015
lhumerus -39.6065 4.67344 72.1484
lradius 52.0754
lwrist 8.66976
lhand -19.0973 19.0892
lfingers 7.12502
lthumb 7.21123 48.9464
rfemur -4.42321 -9.53858 19.4845
rtibia 9.21453
rfoot 28.9001 -15.5648
rtoes 28.9182
lfemur -24.6754 10.773 7.50733
ltibia 103.371
lfoot -11.0883 -46.8154
ltoes 24.9489
452
root 15.7999 21.693 0.604392 -178.996 59.4436 -169.837
lowerback 11.5762 2.59181 -0.0449929
upperback 6.33111 3.88088 2.05589
thorax -0.0160191 2.09216 1.71229
lowerneck -5.88278 -7.71447 -13.1567
upperneck 40.458 -8.76083 9.36982
head 16.7869 -3.4426 5.52677
rclavicle 5.20816e-014 -6.75868e-015
rhumerus -36.8984 -5.43218 -75.7961
rradius 41.4863
rwrist -15.0553
rhand -20.6395 14.7855
rfingers 7.12502
rthumb 5.7224 -15.1172
lclavicle 5.20816e-014 -6.75868e-015
lhumerus -39.9063 4.68666 71.8839
lradius 52.255
lwrist 8.59421
lhand -19.1052 18.624
lfingers 7.12502
lthumb 7.20363 48.4814
rfemur -3.1273 -9.56424 19.389
rtibia 8.07585
rfoot 31.2077 -14.3111
rtoes 26.5778
lfemur -24.9499 10.8293 8.65989
ltibia 105.181
lfoot -8.04501 -48.3621
ltoes 26.6464
453
root 15.9177 21.4643 0.626776 -179.493 59.4922 -170.276
lowerback 11.3317 2.52879 -0.275685
upperback 6.29342 3.76672 2.13743
thorax 0.0609456 2.02499 1.94998
lowerneck -5.75003 -7.59708 -13.4021
upperneck 40.3106 -8.50711 9.21738
head 16.6342 -3.39856 5.52881
rclavicle 3.3197e-014 -8.34896e-015
rhumerus -36.855 -5.05392 -75.6927
rradius 41.4147
rwrist -14.9513
rhand -20.6806 14.9794
rfingers 7.12502
rthumb 5.68274 -14.9244
lclavicle 3.3197e-014 -8.34896e-015
lhumerus -40.3418 5.14452 71.6638
lradius 52.4375
lwrist 8.12496
lhand -19.3497 17.737
lfingers 7.12502
lthumb 6.96761 47.6024
rfemur -1.99161 -9.52502 19.2472
rtibia 7.01431
rfoot 32.4414 -15.8605
rtoes 30.4472
lfemur -25.3709 10.8857 9.84437
ltibia 106.992
lfoot -4.57754 -49.7817
ltoes 28.5668
454
root 16.0367 21.2212 0.647596 -179.394 59.5447 -169.984
lowerback 11.155 2.5741 0.222314
upperback 6.25513 3.86538 2.01946
thorax 0.151403 2.08506 1.54694
lowerneck -5.6646 -7.65327 -12.8998
upperneck 40.0986 -8.6313 8.93388
head 16.4546 -3.41146 5.267
rclavicle -9.42736e-014 -1.39149e-015
rhumerus -36.8874 -5.54215 -75.8179
rradius 41.3773
rwrist -14.6716
rhand -20.9003 14.7983
rfingers 7.12502
rthumb 5.47062 -15.1111
lclavicle -9.42736e-014 -1.39149e-015
lhumerus -40.402 4.62798 71.3306
lradius 52.5882
lwrist 8.26901
lhand -19.8538 17.6835
lfingers 7.12502
lthumb 6.48093 47.5644
rfemur -0.903229 -9.47304 19.5851
rtibia 6.02533
rfoot 34.3484 -16.1809
rtoes 31.8078
lfemur -25.7439 11.0536 11.7169
ltibia 108.898
lfoot -1.36259 -51.3239
ltoes 30.0433
455
root 16.1544 20.967 0.676737 -178.32 59.5976 -168.6
lowerback 11.0446 2.52208 1.15072
upperback 6.16165 3.87899 2.09733
thorax 0.166521 2.11049 1.11102
lowerneck -5.82951 -7.72364 -12.6164
upperneck 40.1928 -8.68171 8.63294
head 16.5132 -3.42179 5.07081
rclavicle -2.82026e-014 -1.35174e-014
rhumerus -36.8217 -5.59012 -76.0609
rradius 41.3435
rwrist -14.4743
rhand -21.2176 14.4795
rfingers 7.12502
rthumb 5.16424 -15.4376
lclavicle -2.82026e-014 -1.35174e-014
lhumerus -40.6723 4.18835 71.0053
lradius 52.9087
lwrist 9.05152
lhand -20.1021 18.5343
lfingers 7.12502
lthumb 6.24124 48.4224
rfemur 0.0608513 -9.40996 20.5527
rtibia 5.1729
rfoot 36.1601 -15.9638
rtoes 32.4879
lfemur -26.2779 11.5141 14.5314
ltibia 110.941
lfoot 1.40231 -52.9657
ltoes 30.6712
